<?xml version="1.0" standalone="no"?>
<!DOCTYPE svg PUBLIC "-//W3C//DTD SVG 20010904//EN"
 "http://www.w3.org/TR/2001/REC-SVG-20010904/DTD/svg10.dtd">
<svg version="1.0" xmlns="http://www.w3.org/2000/svg"
 width="142.000000pt" height="150.000000pt" viewBox="0 0 142.000000 150.000000"
 preserveAspectRatio="xMidYMid meet">

<g transform="translate(0.000000,150.000000) scale(0.100000,-0.100000)"
fill="#000000" stroke="none">
<path d="M742 1382 c-40 -4 -57 -29 -71 -102 -5 -30 -13 -64 -17 -74 -5 -13
-4 -17 4 -12 16 9 26 -35 19 -85 -3 -22 -1 -37 4 -33 5 3 9 -1 9 -9 0 -8 14
-33 30 -55 25 -35 36 -42 63 -42 34 0 81 39 106 87 17 34 13 36 -14 6 -19 -22
-24 -24 -25 -11 0 10 -12 24 -27 31 -27 14 -42 14 -89 3 -19 -5 -24 0 -34 29
-14 44 -4 117 21 144 24 25 75 35 134 27 56 -9 70 -31 61 -99 -4 -36 -2 -47 5
-40 6 6 13 40 16 75 l5 63 -49 46 c-50 48 -81 59 -151 51z m16 -346 c3 -12 -1
-17 -10 -14 -7 3 -15 13 -16 22 -3 12 1 17 10 14 7 -3 15 -13 16 -22z m55 7
c-7 -2 -21 -2 -30 0 -10 3 -4 5 12 5 17 0 24 -2 18 -5z"/>
<path d="M750 1221 c0 -5 10 -12 23 -16 21 -7 21 -7 2 -12 -35 -9 -35 -18 0
-20 46 -2 51 20 9 40 -19 9 -34 13 -34 8z"/>
<path d="M834 1178 c-5 -7 -1 -9 13 -6 16 4 19 2 16 -13 -3 -11 0 -19 6 -19 6
0 11 8 11 18 0 13 2 14 9 4 7 -11 9 -11 14 1 3 8 3 18 0 21 -11 11 -62 6 -69
-6z"/>
<path d="M610 1050 c-8 -5 -40 -12 -70 -16 -57 -7 -151 -48 -208 -91 -32 -24
-83 -112 -96 -165 -6 -25 -35 -78 -98 -177 -40 -63 -36 -93 22 -180 48 -71 50
-76 50 -146 0 -39 -5 -96 -11 -126 -10 -52 -9 -57 18 -102 l28 -46 397 -1
c218 0 399 3 401 8 3 4 15 69 28 145 20 120 21 139 9 150 -8 7 -89 24 -180 36
-206 28 -582 90 -589 96 -5 5 38 9 54 5 64 -17 111 -19 121 -5 6 8 15 11 19 7
5 -4 5 -1 1 5 -4 7 4 34 17 60 26 52 25 50 33 93 4 17 11 27 17 23 6 -3 7 -1
3 5 -3 6 -2 30 3 54 5 24 11 84 13 133 2 76 6 93 23 110 12 11 19 28 17 38 -2
10 1 23 6 30 10 12 5 67 -7 67 -3 0 -13 -5 -21 -10z m-80 -54 c0 -2 -7 -9 -15
-16 -13 -11 -14 -10 -9 4 5 14 24 23 24 12z m4 -88 c-3 -4 -11 -5 -19 -1 -21
7 -19 12 4 10 11 0 18 -5 15 -9z m-24 -12 c0 -2 -7 -6 -15 -10 -8 -3 -15 -1
-15 4 0 6 7 10 15 10 8 0 15 -2 15 -4z m-234 -164 c1 -7 0 -8 -3 -2 -2 5 -9 8
-14 4 -5 -3 -9 0 -9 6 0 15 23 7 26 -8z m239 -24 c-2 -22 -25 -39 -25 -18 0 6
-6 8 -12 5 -7 -4 -2 3 12 14 14 11 25 21 26 21 0 0 0 -10 -1 -22z m20 -57 c3
-5 2 -12 -3 -15 -5 -3 -9 1 -9 9 0 17 3 19 12 6z m-185 -46 c0 -2 -6 -22 -14
-42 -8 -21 -17 -51 -21 -68 -6 -29 -7 -29 -21 -11 -20 28 -18 40 14 85 24 35
42 51 42 36z m-73 -346 c2 -20 -24 -46 -34 -35 -4 4 -1 11 6 16 8 4 11 14 8
22 -3 8 0 15 7 15 7 0 13 -8 13 -18z"/>
<path d="M867 979 c-19 -11 -25 -89 -6 -89 5 0 7 -4 4 -10 -3 -5 0 -10 7 -10
7 0 2 -7 -10 -16 -12 -8 -29 -28 -37 -44 -17 -33 -20 -52 -4 -30 7 11 12 12
15 3 3 -7 13 -9 22 -6 11 4 8 -2 -8 -18 -22 -21 -27 -22 -38 -9 -11 12 -11 11
0 -10 7 -14 11 -28 10 -32 -1 -4 5 -5 14 -1 9 3 12 8 5 12 -6 4 -7 12 -1 21 6
9 10 10 10 3 0 -6 3 -18 6 -26 3 -9 -3 -17 -18 -20 -24 -6 -24 -9 -22 -107 2
-76 -1 -103 -11 -106 -27 -11 -40 -101 -15 -108 35 -10 104 -17 93 -9 -18 13
-28 104 -12 114 23 14 26 11 33 -38 4 -27 8 -57 10 -68 2 -16 13 -21 52 -27
27 -4 60 -9 74 -12 l26 -5 -7 67 c-4 37 -9 74 -13 82 -3 8 -10 104 -14 212 -8
187 -10 199 -31 222 -13 13 -37 30 -54 37 -18 7 -39 18 -47 25 -10 9 -20 10
-33 3z m126 -104 c28 -20 15 -95 -16 -95 -20 0 -20 0 -2 -14 17 -12 17 -15 4
-29 -8 -8 -33 -16 -56 -18 -38 -4 -40 -3 -41 23 0 15 4 30 9 33 5 4 9 15 9 26
0 12 5 19 13 16 6 -2 17 5 24 17 7 12 12 15 13 8 0 -7 5 -10 10 -7 6 3 10 1
10 -6 0 -10 3 -10 12 -1 9 9 6 17 -12 37 -26 28 -9 35 23 10z m-133 -71 c0
-22 -16 -17 -17 6 -1 11 2 18 8 15 5 -4 9 -13 9 -21z m124 -106 c-5 -7 -9 -16
-9 -20 0 -3 -4 -10 -9 -15 -5 -4 -7 1 -4 14 3 12 3 24 -1 26 -3 2 0 2 7 1 6
-2 12 2 12 8 0 6 3 9 6 5 3 -3 2 -12 -2 -19z m-144 -33 c0 -8 -2 -15 -4 -15
-2 0 -6 7 -10 15 -3 8 -1 15 4 15 6 0 10 -7 10 -15z m64 -50 c-5 -11 -9 -12
-19 -2 -9 8 -10 14 -2 19 16 9 27 0 21 -17z m30 -13 c-4 -12 -10 -22 -15 -22
-12 0 -11 17 2 25 6 4 8 14 4 24 -4 11 -3 13 4 6 6 -6 8 -20 5 -33z m39 -152
c-3 -12 -8 -19 -11 -16 -5 6 5 36 12 36 2 0 2 -9 -1 -20z m37 -30 c0 -5 -7
-10 -15 -10 -8 0 -15 5 -15 10 0 6 7 10 15 10 8 0 15 -4 15 -10z m-3 -52 c-3
-8 -6 -5 -6 6 -1 11 2 17 5 13 3 -3 4 -12 1 -19z"/>
<path d="M940 810 c0 -6 7 -10 15 -10 8 0 15 2 15 4 0 2 -7 6 -15 10 -8 3 -15
1 -15 -4z"/>
<path d="M793 543 c4 -3 -8 -17 -25 -30 -18 -12 -29 -23 -25 -23 12 0 67 43
67 52 0 4 -5 8 -12 8 -6 0 -8 -3 -5 -7z"/>
<path d="M570 416 c0 -2 7 -7 16 -10 8 -3 12 -2 9 4 -6 10 -25 14 -25 6z"/>
<path d="M728 383 c6 -2 18 -2 25 0 6 3 1 5 -13 5 -14 0 -19 -2 -12 -5z"/>
</g>
</svg>
